<svg width="18" height="18" viewBox="0 0 18 18" fill="none" xmlns="http://www.w3.org/2000/svg">
<g clip-path="url(#clip0)">
<path d="M8.99968 17.307C13.5874 17.307 17.3065 13.5879 17.3065 9.00017C17.3065 4.41244 13.5874 0.693359 8.99968 0.693359C4.41196 0.693359 0.692871 4.41244 0.692871 9.00017C0.692871 13.5879 4.41196 17.307 8.99968 17.307Z" fill="#B0B0B0"/>
<path d="M8.99998 17.9997C6.69414 17.9997 4.38831 17.1223 2.63278 15.3675C-0.877595 11.8571 -0.877595 6.1441 2.63278 2.63301C6.14316 -0.876669 11.8568 -0.877372 15.3672 2.63301C18.8776 6.1441 18.8776 11.8564 15.3672 15.3675C13.6116 17.1223 11.3051 17.9997 8.99998 17.9997ZM3.61901 3.61924C0.652679 6.58627 0.652679 11.4142 3.61901 14.3812C6.58674 17.3476 11.4146 17.3483 14.381 14.3812C17.3473 11.4142 17.3473 6.58627 14.381 3.61924C11.4132 0.652904 6.58603 0.652904 3.61901 3.61924Z" fill="#B0B0B0"/>
<path d="M6.5785 12.1178C6.39994 12.1178 6.22142 12.0494 6.08539 11.9134C5.81268 11.6407 5.81268 11.1999 6.08539 10.9272L11.0165 5.99604C11.2892 5.72333 11.73 5.72333 12.0027 5.99604C12.2754 6.26875 12.2754 6.70955 12.0027 6.98226L7.07161 11.9134C6.93489 12.0494 6.75703 12.1178 6.5785 12.1178Z" fill="white"/>
<path d="M11.5089 12.1178C11.3303 12.1178 11.1518 12.0494 11.0158 11.9134L6.08466 6.98226C5.81195 6.70955 5.81195 6.26875 6.08466 5.99604C6.35737 5.72333 6.79817 5.72333 7.07088 5.99604L12.002 10.9272C12.2747 11.1999 12.2747 11.6407 12.002 11.9134C11.866 12.0494 11.6874 12.1178 11.5089 12.1178Z" fill="white"/>
</g>
<defs>
<clipPath id="clip0">
<rect width="18" height="18" fill="white"/>
</clipPath>
</defs>
</svg>
